<svg width="49" height="48" viewBox="0 0 49 48" fill="none" xmlns="http://www.w3.org/2000/svg">
<rect x="1" y="0.5" width="47" height="47" rx="23.5" fill="white"/>
<rect x="1" y="0.5" width="47" height="47" rx="23.5" stroke="#5D1A9B"/>
<path d="M24.5 10C16.76 10 10.5 16.3 10.5 24.08C10.5 31.1 15.62 36.94 22.32 38V28.16H18.76V24.08H22.32V20.98C22.32 17.44 24.42 15.5 27.6 15.5C29.14 15.5 30.74 15.78 30.74 15.78V19.24H28.98C27.24 19.24 26.7 20.32 26.7 21.44V24.08H30.58L29.96 28.16H26.7V38C33.4 36.94 38.52 31.12 38.52 24.08C38.52 16.3 32.26 10 24.52 10H24.5Z" fill="#5D1A9B"/>
</svg>
