<svg width="49" height="48" viewBox="0 0 49 48" fill="none" xmlns="http://www.w3.org/2000/svg">
<rect x="1" y="0.5" width="47" height="47" rx="23.5" fill="white"/>
<rect x="1" y="0.5" width="47" height="47" rx="23.5" stroke="#5D1A9B"/>
<path d="M11.832 24.0007C11.832 18.03 11.832 15.0433 13.6867 13.1887C15.5414 11.334 18.5267 11.334 24.4987 11.334C30.4694 11.334 33.456 11.334 35.3107 13.1887C37.1654 15.0433 37.1654 18.0287 37.1654 24.0007C37.1654 29.9713 37.1654 32.958 35.3107 34.8127C33.456 36.6673 30.4707 36.6673 24.4987 36.6673C18.528 36.6673 15.5414 36.6673 13.6867 34.8127C11.832 32.958 11.832 29.9727 11.832 24.0007Z" stroke="#5D1A9B" stroke-width="1.5" stroke-linecap="round" stroke-linejoin="round"/>
<path d="M31.844 16.668H31.8307M30.5 24.0013C30.5 25.5926 29.8679 27.1187 28.7426 28.2439C27.6174 29.3692 26.0913 30.0013 24.5 30.0013C22.9087 30.0013 21.3826 29.3692 20.2574 28.2439C19.1321 27.1187 18.5 25.5926 18.5 24.0013C18.5 22.41 19.1321 20.8839 20.2574 19.7587C21.3826 18.6334 22.9087 18.0013 24.5 18.0013C26.0913 18.0013 27.6174 18.6334 28.7426 19.7587C29.8679 20.8839 30.5 22.41 30.5 24.0013Z" stroke="#5D1A9B" stroke-width="1.5" stroke-linecap="round" stroke-linejoin="round"/>
</svg>
