<svg width="49" height="48" viewBox="0 0 49 48" fill="none" xmlns="http://www.w3.org/2000/svg">
<rect x="1" y="0.5" width="47" height="47" rx="23.5" fill="white"/>
<rect x="1" y="0.5" width="47" height="47" rx="23.5" stroke="#5D1A9B"/>
<path d="M30.6333 15.76C29.7221 14.7194 29.2198 13.3832 29.22 12H25.1V28.5333C25.0688 29.4283 24.6913 30.2761 24.047 30.898C23.4028 31.5199 22.5421 31.8672 21.6466 31.8667C19.7533 31.8667 18.18 30.32 18.18 28.4C18.18 26.1067 20.3933 24.3867 22.6733 25.0933V20.88C18.0733 20.2667 14.0466 23.84 14.0466 28.4C14.0466 32.84 17.7266 36 21.6333 36C25.82 36 29.22 32.6 29.22 28.4V20.0133C30.8906 21.2131 32.8965 21.8569 34.9533 21.8533V17.7333C34.9533 17.7333 32.4466 17.8533 30.6333 15.76Z" fill="#5D1A9B"/>
</svg>
